<svg xmlns="http://www.w3.org/2000/svg" viewBox="0 0 100 100">
  <defs>
    <linearGradient id="logoGradient" x1="0%" y1="0%" x2="100%" y2="100%">
      <stop offset="0%" style="stop-color:#6366f1"/>
      <stop offset="50%" style="stop-color:#a855f7"/>
      <stop offset="100%" style="stop-color:#06b6d4"/>
    </linearGradient>
  </defs>
  <rect rx="20" width="100" height="100" fill="#0f172a"/>
  <rect rx="16" x="8" y="8" width="84" height="84" fill="url(#logoGradient)" opacity="0.15"/>
  <g fill="url(#logoGradient)">
    <rect x="18" y="22" width="10" height="8" rx="2"/>
    <rect x="32" y="22" width="10" height="8" rx="2"/>
    <rect x="46" y="22" width="10" height="8" rx="2"/>
    <rect x="60" y="22" width="10" height="8" rx="2"/>
    <rect x="74" y="22" width="10" height="8" rx="2"/>
    <rect x="18" y="36" width="10" height="8" rx="2"/>
    <rect x="32" y="36" width="10" height="8" rx="2"/>
    <rect x="46" y="36" width="10" height="8" rx="2" fill="#0f172a"/>
    <rect x="60" y="36" width="10" height="8" rx="2"/>
    <rect x="74" y="36" width="10" height="8" rx="2" fill="#0f172a"/>
    <rect x="18" y="50" width="10" height="8" rx="2" fill="#0f172a"/>
    <rect x="32" y="50" width="10" height="8" rx="2"/>
    <rect x="46" y="50" width="10" height="8" rx="2"/>
    <rect x="60" y="50" width="10" height="8" rx="2" fill="#0f172a"/>
    <rect x="74" y="50" width="10" height="8" rx="2"/>
    <rect x="18" y="64" width="10" height="8" rx="2"/>
    <rect x="32" y="64" width="10" height="8" rx="2" fill="#0f172a"/>
    <rect x="46" y="64" width="10" height="8" rx="2" fill="#0f172a"/>
    <rect x="60" y="64" width="10" height="8" rx="2"/>
    <rect x="74" y="64" width="10" height="8" rx="2"/>
  </g>
</svg>